<svg width="24" height="24" viewBox="0 0 24 24" fill="none" xmlns="http://www.w3.org/2000/svg">
<path d="M11.4873 0.9729C7.99573 0.9729 5.14746 3.83091 5.14746 7.32248C5.14746 9.45685 6.21547 11.3479 7.84082 12.4982C4.04976 14.0173 1.36035 17.724 1.36035 22.049C1.36615 22.3104 1.47406 22.5591 1.66096 22.7419C1.84787 22.9247 2.09891 23.0271 2.36035 23.0271C2.62179 23.0271 2.87284 22.9247 3.05974 22.7419C3.24665 22.5591 3.35455 22.3104 3.36035 22.049C3.36035 17.459 7.0613 13.7599 11.6514 13.7599C13.2536 13.7599 14.7409 14.2167 16.0068 15.0002C16.1189 15.0698 16.2436 15.1166 16.3739 15.1379C16.5041 15.1593 16.6372 15.1547 16.7657 15.1246C16.8941 15.0944 17.0153 15.0391 17.1224 14.962C17.2295 14.8849 17.3203 14.7876 17.3897 14.6753C17.459 14.5631 17.5056 14.4382 17.5266 14.3079C17.5476 14.1777 17.5428 14.0445 17.5123 13.9161C17.4818 13.7877 17.4263 13.6666 17.349 13.5597C17.2716 13.4528 17.1739 13.3623 17.0615 13.2932C16.4911 12.9402 15.8719 12.6638 15.2334 12.426C16.8063 11.2698 17.8369 9.41426 17.8369 7.32248C17.8369 3.83091 14.9789 0.9729 11.4873 0.9729ZM11.4873 2.97478C13.898 2.97478 15.8369 4.91178 15.8369 7.32248C15.8369 9.73318 13.898 11.6623 11.4873 11.6623C9.07661 11.6623 7.14746 9.73318 7.14746 7.32248C7.14746 4.91178 9.07661 2.97478 11.4873 2.97478ZM21.6084 14.9768C21.4459 14.9815 21.2869 15.0257 21.1453 15.1056C21.0038 15.1856 20.8838 15.299 20.7959 15.4358L17.3486 20.6018L15.1865 19.1545C15.0769 19.0808 14.9538 19.0294 14.8243 19.0034C14.6947 18.9774 14.5614 18.9771 14.4317 19.0027C14.3021 19.0283 14.1789 19.0793 14.069 19.1527C13.9591 19.226 13.8648 19.3203 13.7914 19.4302C13.718 19.54 13.667 19.6632 13.6414 19.7928C13.6158 19.9224 13.6159 20.0559 13.6419 20.1854C13.6679 20.315 13.7193 20.4381 13.7929 20.5477C13.8666 20.6574 13.9612 20.7514 14.0713 20.8244L17.0771 22.8244C17.1866 22.8971 17.3094 22.9475 17.4384 22.9727C17.5673 22.9978 17.7 22.9973 17.8288 22.9712C17.9576 22.945 18.0799 22.8938 18.1889 22.8204C18.2979 22.747 18.3913 22.6528 18.4639 22.5432L22.4658 16.5413C22.5702 16.3888 22.6303 16.2104 22.6394 16.0258C22.6485 15.8413 22.6064 15.6578 22.5175 15.4957C22.4287 15.3337 22.2968 15.1994 22.1363 15.1078C21.9758 15.0162 21.7931 14.9709 21.6084 14.9768Z" fill="black"/>
</svg>
