<svg width="24" height="24" viewBox="0 0 24 24" fill="none" xmlns="http://www.w3.org/2000/svg">
<path d="M17.5002 8.79995C16.3002 8.79995 15.2002 7.79995 15.2002 6.49995C15.2002 5.19995 16.2002 4.19995 17.5002 4.19995C18.8002 4.19995 19.8002 5.19995 19.8002 6.49995C19.8002 7.79995 18.7002 8.79995 17.5002 8.79995ZM17.5002 5.79995C17.1002 5.79995 16.7002 6.09995 16.7002 6.59995C16.7002 7.09995 17.0002 7.39995 17.5002 7.39995C18.0002 7.39995 18.3002 7.09995 18.3002 6.59995C18.3002 6.09995 17.9002 5.79995 17.5002 5.79995Z" fill="black"/>
<path d="M10.7996 22.8C9.99961 22.8 9.09961 22.5 8.39961 22C5.99961 20.1 3.89961 18 2.09961 15.6C0.899607 14.1 0.999608 12 2.19961 10.6C4.99961 7.59999 7.79961 4.79999 10.9996 2.09999C11.3996 1.69999 11.9996 1.49999 12.4996 1.49999C15.1996 1.29999 19.8996 1.09999 21.4996 2.59999C22.9996 4.09999 22.8996 8.89999 22.5996 11.6C22.4996 12.2 22.2996 12.7 21.9996 13.1C19.2996 16.3 16.4996 19.1 13.3996 21.9C12.5996 22.4 11.6996 22.8 10.7996 22.8ZM15.8996 2.69999C14.8996 2.69999 13.7996 2.79999 12.6996 2.89999C12.4996 2.89999 12.1996 2.99999 11.9996 3.19999C8.89961 5.89999 5.99961 8.59999 3.29961 11.6C2.49961 12.4 2.49961 13.7 3.19961 14.6C4.99961 17 6.99961 19 9.29961 20.7C10.1996 21.4 11.4996 21.4 12.2996 20.6C15.2996 17.9 18.0996 15.1 20.6996 12C20.8996 11.8 20.9996 11.6 20.9996 11.3C21.3996 7.39999 21.0996 4.29999 20.2996 3.49999C19.8996 2.99999 18.1996 2.69999 15.8996 2.69999Z" fill="black"/>
<path d="M10.0004 17.7999C9.80039 17.7999 9.60039 17.6999 9.50039 17.5999L6.50039 14.5999C6.20039 14.2999 6.20039 13.7999 6.50039 13.4999C6.80039 13.1999 7.30039 13.1999 7.60039 13.4999L10.6004 16.4999C10.9004 16.7999 10.9004 17.2999 10.6004 17.5999C10.4004 17.6999 10.2004 17.7999 10.0004 17.7999Z" fill="black"/>
</svg>
