<svg width="20" height="20" viewBox="0 0 20 20" fill="none" xmlns="http://www.w3.org/2000/svg">
<g clip-path="url(#clip0_520_375)">
<mask id="path-1-inside-1_520_375" fill="white">
<path d="M0.40474 6.73824L8.62307 11.6691C9.04807 11.9241 9.52391 12.0516 10.0006 12.0516C10.4764 12.0516 10.9531 11.9241 11.3781 11.6691L19.5956 6.73824C19.8464 6.58741 19.9997 6.31658 19.9997 6.02408C19.9997 5.73158 19.8464 5.45991 19.5956 5.30991L11.3789 0.378242C10.5281 -0.132591 9.47307 -0.132591 8.62307 0.378242L0.40474 5.30908C0.153907 5.45991 0.00057315 5.73074 0.00057315 6.02324C0.00057315 6.31574 0.153907 6.58741 0.40474 6.73741V6.73824ZM9.48057 1.80741C9.80057 1.61574 10.1997 1.61574 10.5206 1.80741L17.5472 6.02408L10.5206 10.2407C10.1997 10.4324 9.80057 10.4324 9.47974 10.2407L2.45391 6.02324L9.48057 1.80741ZM20.0006 16.6649C20.0006 17.1257 19.6272 17.4982 19.1672 17.4982H17.5006V19.1649C17.5006 19.6257 17.1272 19.9982 16.6672 19.9982C16.2072 19.9982 15.8339 19.6257 15.8339 19.1649V17.4982H14.1672C13.7072 17.4982 13.3339 17.1257 13.3339 16.6649C13.3339 16.2041 13.7072 15.8316 14.1672 15.8316H15.8339V14.1649C15.8339 13.7041 16.2072 13.3316 16.6672 13.3316C17.1272 13.3316 17.5006 13.7041 17.5006 14.1649V15.8316H19.1672C19.6272 15.8316 20.0006 16.2041 20.0006 16.6649ZM10.7147 19.4032C10.5581 19.6632 10.2822 19.8074 9.99974 19.8074C9.85391 19.8074 9.70557 19.7691 9.57141 19.6882L0.40474 14.1891C0.00973982 13.9524 -0.11776 13.4407 0.118906 13.0457C0.35474 12.6507 0.866407 12.5224 1.26224 12.7599L10.4289 18.2599C10.8239 18.4966 10.9514 19.0082 10.7147 19.4032ZM19.8814 9.23991C20.1181 9.63491 19.9906 10.1466 19.5956 10.3832L10.4289 15.8832C10.2964 15.9624 10.1489 16.0024 9.99974 16.0024C9.85057 16.0024 9.70307 15.9624 9.57057 15.8832L0.40474 10.3832C0.00973982 10.1466 -0.11776 9.63491 0.118906 9.23991C0.35474 8.84408 0.866407 8.71657 1.26224 8.95407L9.99974 14.1966L18.7372 8.95407C19.1322 8.71741 19.6447 8.84491 19.8814 9.23991Z"/>
</mask>
<path d="M0.40474 6.73824H-26.2619V21.8369L-13.3148 29.6049L0.40474 6.73824ZM8.62307 11.6691L22.343 -11.1974L22.3426 -11.1976L8.62307 11.6691ZM11.3781 11.6691L25.098 34.5356L25.0986 34.5351L11.3781 11.6691ZM19.5956 6.73824L33.3161 29.6043L33.327 29.5978L33.3378 29.5913L19.5956 6.73824ZM19.5956 5.30991L5.87228 28.1743L5.89076 28.1854L5.90925 28.1965L19.5956 5.30991ZM11.3789 0.378242L-2.34756 23.2408L-2.34439 23.2427L11.3789 0.378242ZM8.62307 0.378242L22.3426 23.2449L22.351 23.2399L22.3594 23.2348L8.62307 0.378242ZM0.40474 5.30908L-13.3148 -17.5576L-13.3261 -17.5508L-13.3375 -17.544L0.40474 5.30908ZM0.40474 6.73741H27.0714V-8.38684L14.0911 -16.1492L0.40474 6.73741ZM9.48057 1.80741L-4.22179 -21.0696L-4.23035 -21.0644L-4.23891 -21.0593L9.48057 1.80741ZM10.5206 1.80741L24.2421 -21.0581L24.2194 -21.0717L24.1967 -21.0853L10.5206 1.80741ZM17.5472 6.02408L31.2687 28.8896L69.3719 6.02407L31.2687 -16.8414L17.5472 6.02408ZM10.5206 10.2407L24.1967 33.1334L24.2194 33.1199L24.2421 33.1063L10.5206 10.2407ZM9.47974 10.2407L-4.24493 33.1044L-4.22068 33.1189L-4.1964 33.1334L9.47974 10.2407ZM2.45391 6.02324L-11.2656 -16.8435L-49.3685 6.01737L-11.2708 28.8869L2.45391 6.02324ZM17.5006 17.4982V-9.16843H-9.16609V17.4982H17.5006ZM15.8339 17.4982H42.5006V-9.16843H15.8339V17.4982ZM15.8339 15.8316V42.4982H42.5006V15.8316H15.8339ZM17.5006 15.8316H-9.16609V42.4982H17.5006V15.8316ZM10.7147 19.4032L33.5553 33.1662L33.5726 33.1376L33.5897 33.1089L10.7147 19.4032ZM9.57141 19.6882L23.333 -3.15316L23.3114 -3.16618L23.2898 -3.17915L9.57141 19.6882ZM0.40474 14.1891L14.1231 -8.67832L14.1168 -8.68212L14.1104 -8.68592L0.40474 14.1891ZM0.118906 13.0457L22.9939 26.7514L23.0045 26.7337L23.0152 26.7159L0.118906 13.0457ZM1.26224 12.7599L-12.4576 35.6264H-12.4576L1.26224 12.7599ZM10.4289 18.2599L-3.29098 41.1264L-3.28388 41.1306L-3.27678 41.1349L10.4289 18.2599ZM19.5956 10.3832L5.88989 -12.4917L5.88279 -12.4875L5.87569 -12.4832L19.5956 10.3832ZM10.4289 15.8832L24.1064 38.7751L24.1276 38.7624L24.1488 38.7497L10.4289 15.8832ZM9.57057 15.8832L-4.15023 38.7492L-4.1286 38.7621L-4.10694 38.7751L9.57057 15.8832ZM0.40474 10.3832L14.1255 -12.4827L14.118 -12.4872L14.1104 -12.4917L0.40474 10.3832ZM0.118906 9.23991L22.9939 22.9456L23.0109 22.9172L23.0278 22.8888L0.118906 9.23991ZM1.26224 8.95407L14.9821 -13.9124L14.9821 -13.9124L1.26224 8.95407ZM9.99974 14.1966L-3.72015 37.0631L9.99974 45.295L23.7196 37.0631L9.99974 14.1966ZM18.7372 8.95407L5.03155 -13.9209L5.02445 -13.9167L5.01736 -13.9124L18.7372 8.95407ZM-13.3148 29.6049L-5.09647 34.5358L22.3426 -11.1976L14.1243 -16.1284L-13.3148 29.6049ZM-5.09681 34.5356C-0.474519 37.3089 4.75278 38.7182 10.0006 38.7182V-14.6151C14.295 -14.6151 18.5707 -13.4608 22.343 -11.1974L-5.09681 34.5356ZM10.0006 38.7182C15.2433 38.7182 20.4721 37.3111 25.098 34.5356L-2.34181 -11.1974C1.4341 -13.4629 5.70955 -14.6151 10.0006 -14.6151V38.7182ZM25.0986 34.5351L33.3161 29.6043L5.87501 -16.1278L-2.34249 -11.197L25.0986 34.5351ZM33.3378 29.5913C41.5963 24.6252 46.6664 15.6881 46.6664 6.02408H-6.66692C-6.66692 -3.05491 -1.90348 -11.4504 5.85337 -16.1148L33.3378 29.5913ZM46.6664 6.02408C46.6664 -3.59836 41.6276 -12.5859 33.2819 -17.5767L5.90925 28.1965C-1.93479 23.5057 -6.66692 15.0615 -6.66692 6.02408H46.6664ZM33.3189 -17.5545L25.1022 -22.4862L-2.34439 23.2427L5.87228 28.1743L33.3189 -17.5545ZM25.1054 -22.4843C15.8106 -28.0648 4.19389 -28.0718 -5.11329 -22.4783L22.3594 23.2348C14.7523 27.8066 5.24559 27.7996 -2.34756 23.2408L25.1054 -22.4843ZM-5.09647 -22.4884L-13.3148 -17.5576L14.1243 28.1758L22.3426 23.2449L-5.09647 -22.4884ZM-13.3375 -17.544C-21.596 -12.5779 -26.6661 -3.64073 -26.6661 6.02324H26.6672C26.6672 15.1022 21.9038 23.4977 14.1469 28.1621L-13.3375 -17.544ZM-26.6661 6.02324C-26.6661 15.6456 -21.6273 24.6332 -13.2816 29.624L14.0911 -16.1492C21.9351 -11.4584 26.6672 -3.01416 26.6672 6.02324H-26.6661ZM-26.2619 6.73741V6.73824H27.0714V6.73741H-26.2619ZM23.1829 24.6844C15.0558 29.5522 4.93575 29.5339 -3.15557 24.7001L24.1967 -21.0853C15.4637 -26.3024 4.54532 -26.3207 -4.22179 -21.0696L23.1829 24.6844ZM-3.20091 24.6729L3.82576 28.8896L31.2687 -16.8414L24.2421 -21.0581L-3.20091 24.6729ZM3.82576 -16.8414L-3.20091 -12.6248L24.2421 33.1063L31.2687 28.8896L3.82576 -16.8414ZM-3.15557 -12.6519C4.94673 -17.4923 15.0536 -17.4923 23.1559 -12.6519L-4.1964 33.1334C4.54756 38.3571 15.4528 38.3571 24.1967 33.1334L-3.15557 -12.6519ZM23.2044 -12.6229L16.1786 -16.8404L-11.2708 28.8869L-4.24493 33.1044L23.2044 -12.6229ZM16.1734 28.89L23.2001 24.6741L-4.23891 -21.0593L-11.2656 -16.8435L16.1734 28.89ZM-6.66609 16.6649C-6.66609 2.38078 4.91702 -9.16843 19.1672 -9.16843V44.1649C34.3375 44.1649 46.6672 31.8707 46.6672 16.6649H-6.66609ZM19.1672 -9.16843H17.5006V44.1649H19.1672V-9.16843ZM-9.16609 17.4982V19.1649H44.1672V17.4982H-9.16609ZM-9.16609 19.1649C-9.16609 4.88078 2.41702 -6.66843 16.6672 -6.66843V46.6649C31.8375 46.6649 44.1672 34.3707 44.1672 19.1649H-9.16609ZM16.6672 -6.66843C30.9175 -6.66843 42.5006 4.88078 42.5006 19.1649H-10.8328C-10.8328 34.3707 1.49702 46.6649 16.6672 46.6649V-6.66843ZM42.5006 19.1649V17.4982H-10.8328V19.1649H42.5006ZM15.8339 -9.16843H14.1672V44.1649H15.8339V-9.16843ZM14.1672 -9.16843C28.4175 -9.16843 40.0006 2.38078 40.0006 16.6649H-13.3328C-13.3328 31.8707 -1.00298 44.1649 14.1672 44.1649V-9.16843ZM40.0006 16.6649C40.0006 30.949 28.4175 42.4982 14.1672 42.4982V-10.8351C-1.00298 -10.8351 -13.3328 1.45911 -13.3328 16.6649H40.0006ZM14.1672 42.4982H15.8339V-10.8351H14.1672V42.4982ZM42.5006 15.8316V14.1649H-10.8328V15.8316H42.5006ZM42.5006 14.1649C42.5006 28.449 30.9175 39.9982 16.6672 39.9982V-13.3351C1.49702 -13.3351 -10.8328 -1.04089 -10.8328 14.1649H42.5006ZM16.6672 39.9982C2.41702 39.9982 -9.16609 28.449 -9.16609 14.1649H44.1672C44.1672 -1.04089 31.8375 -13.3351 16.6672 -13.3351V39.9982ZM-9.16609 14.1649V15.8316H44.1672V14.1649H-9.16609ZM17.5006 42.4982H19.1672V-10.8351H17.5006V42.4982ZM19.1672 42.4982C4.91702 42.4982 -6.66609 30.949 -6.66609 16.6649H46.6672C46.6672 1.45911 34.3375 -10.8351 19.1672 -10.8351V42.4982ZM-12.1259 5.64031C-7.2735 -2.41254 1.29496 -6.85926 9.99974 -6.85926V46.4741C19.2695 46.4741 28.3896 41.739 33.5553 33.1662L-12.1259 5.64031ZM9.99974 -6.85926C14.536 -6.85926 19.1719 -5.66015 23.333 -3.15316L-4.19018 42.5296C0.239225 45.1983 5.17178 46.4741 9.99974 46.4741V-6.85926ZM23.2898 -3.17915L14.1231 -8.67832L-13.3136 37.0565L-4.14695 42.5556L23.2898 -3.17915ZM14.1104 -8.68592C26.3859 -1.33099 30.3045 14.5499 22.9939 26.7514L-22.7561 -0.659951C-30.54 12.3316 -26.3664 29.2358 -13.301 37.0641L14.1104 -8.68592ZM23.0152 26.7159C15.6676 39.0223 -0.241995 42.9558 -12.4576 35.6264L14.9821 -10.1066C1.97481 -17.911 -14.9582 -13.7209 -22.7774 -0.62439L23.0152 26.7159ZM-12.4576 35.6264L-3.29098 41.1264L24.1488 -4.60657L14.9821 -10.1066L-12.4576 35.6264ZM-3.27678 41.1349C-15.5523 33.78 -19.4709 17.8991 -12.1602 5.69755L33.5897 33.1089C41.3737 20.1174 37.2001 3.21317 24.1346 -4.61508L-3.27678 41.1349ZM-2.99358 22.9456C-10.3042 10.7441 -6.38558 -5.13683 5.88989 -12.4917L33.3013 33.2582C46.3667 25.43 50.5403 8.52574 42.7564 -4.46578L-2.99358 22.9456ZM5.87569 -12.4832L-3.29098 -6.98324L24.1488 38.7497L33.3155 33.2497L5.87569 -12.4832ZM-3.24861 -7.00861C0.752831 -9.3994 5.33171 -10.6643 9.99974 -10.6643V42.6691C14.9661 42.6691 19.84 41.3242 24.1064 38.7751L-3.24861 -7.00861ZM9.99974 -10.6643C14.6678 -10.6643 19.2467 -9.39939 23.2481 -7.00861L-4.10694 38.7751C0.159475 41.3242 5.03335 42.6691 9.99974 42.6691V-10.6643ZM23.2914 -6.98269L14.1255 -12.4827L-13.3161 33.2492L-4.15023 38.7492L23.2914 -6.98269ZM14.1104 -12.4917C26.3859 -5.13682 30.3045 10.7441 22.9939 22.9456L-22.7561 -4.46578C-30.54 8.52572 -26.3664 25.43 -13.301 33.2582L14.1104 -12.4917ZM23.0278 22.8888C15.663 35.2502 -0.274226 39.1306 -12.4576 31.8206L14.9821 -13.9124C2.00704 -21.6975 -14.9535 -17.5621 -22.79 -4.40899L23.0278 22.8888ZM-12.4576 31.8206L-3.72015 37.0631L23.7196 -8.6699L14.9821 -13.9124L-12.4576 31.8206ZM23.7196 37.0631L32.4571 31.8206L5.01736 -13.9124L-3.72015 -8.6699L23.7196 37.0631ZM32.4429 31.8291C20.2516 39.1336 4.36746 35.2313 -2.99358 22.9456L42.7564 -4.46578C34.922 -17.5415 18.0128 -21.6987 5.03155 -13.9209L32.4429 31.8291Z" fill="white" mask="url(#path-1-inside-1_520_375)"/>
</g>
<defs>
<clipPath id="clip0_520_375">
<rect width="20" height="20" fill="white"/>
</clipPath>
</defs>
</svg>
