<svg width="18" height="18" viewBox="0 0 18 18" fill="none" xmlns="http://www.w3.org/2000/svg">
<g clip-path="url(#clip0_469_1807)">
<path d="M6.18145 8.44995H2.46895C1.21794 8.44995 0.200195 7.43221 0.200195 6.1812V2.4687C0.200195 1.21769 1.21794 0.199951 2.46895 0.199951H6.18145C7.43246 0.199951 8.4502 1.21769 8.4502 2.4687V6.1812C8.4502 7.43221 7.43246 8.44995 6.18145 8.44995ZM2.46895 1.29995C1.82448 1.29995 1.3002 1.82424 1.3002 2.4687V6.1812C1.3002 6.82566 1.82448 7.34995 2.46895 7.34995H6.18145C6.82591 7.34995 7.3502 6.82566 7.3502 6.1812V2.4687C7.3502 1.82424 6.82591 1.29995 6.18145 1.29995H2.46895Z" fill="black"/>
<path d="M15.5311 8.44995H11.8186C10.5675 8.44995 9.5498 7.43221 9.5498 6.1812V2.4687C9.5498 1.21769 10.5675 0.199951 11.8186 0.199951H15.5311C16.7821 0.199951 17.7998 1.21769 17.7998 2.4687V6.1812C17.7998 7.43221 16.7821 8.44995 15.5311 8.44995ZM11.8186 1.29995C11.1741 1.29995 10.6498 1.82424 10.6498 2.4687V6.1812C10.6498 6.82566 11.1741 7.34995 11.8186 7.34995H15.5311C16.1755 7.34995 16.6998 6.82566 16.6998 6.1812V2.4687C16.6998 1.82424 16.1755 1.29995 15.5311 1.29995H11.8186Z" fill="black"/>
<path d="M13.6748 17.8C11.4003 17.8 9.5498 15.9496 9.5498 13.675C9.5498 11.4005 11.4003 9.55005 13.6748 9.55005C15.9493 9.55005 17.7998 11.4005 17.7998 13.675C17.7998 15.9496 15.9493 17.8 13.6748 17.8ZM13.6748 10.65C12.0068 10.65 10.6498 12.0071 10.6498 13.675C10.6498 15.343 12.0068 16.7 13.6748 16.7C15.3428 16.7 16.6998 15.343 16.6998 13.675C16.6998 12.0071 15.3428 10.65 13.6748 10.65Z" fill="black"/>
<path d="M6.18145 17.8H2.46895C1.21794 17.8 0.200195 16.7823 0.200195 15.5313V11.8188C0.200195 10.5678 1.21794 9.55005 2.46895 9.55005H6.18145C7.43246 9.55005 8.4502 10.5678 8.4502 11.8188V15.5313C8.4502 16.7823 7.43246 17.8 6.18145 17.8ZM2.46895 10.65C1.82448 10.65 1.3002 11.1743 1.3002 11.8188V15.5313C1.3002 16.1758 1.82448 16.7 2.46895 16.7H6.18145C6.82591 16.7 7.3502 16.1758 7.3502 15.5313V11.8188C7.3502 11.1743 6.82591 10.65 6.18145 10.65H2.46895Z" fill="black"/>
</g>
<defs>
<clipPath id="clip0_469_1807">
<rect width="17.6" height="17.6" fill="white" transform="translate(0.200195 0.199951)"/>
</clipPath>
</defs>
</svg>
