<svg width="24" height="24" viewBox="0 0 24 24" fill="none" xmlns="http://www.w3.org/2000/svg">
<path d="M0.184204 18.1908L5.80921 23.8158C5.99232 23.9989 6.28895 23.9989 6.47205 23.8158L9.56581 20.7221C9.74891 20.539 9.74891 20.2423 9.56581 20.0592L9.42848 19.9219H16.1854C16.7789 19.9219 17.3452 19.6994 17.7819 19.294L23.4687 13.9644C24.013 13.4588 24.1934 12.6557 23.9173 11.9661C23.7177 11.467 23.3101 11.085 22.7992 10.9182C22.2882 10.7511 21.7339 10.8188 21.278 11.1037C21.2751 11.1055 20.0155 11.9321 20.0155 11.9321C20.0069 9.39113 18.4712 6.68153 16.3572 5.46168C16.4779 5.32307 16.5727 5.159 16.6331 4.97535C16.875 4.23945 16.4729 3.44294 15.7359 3.19959C15.7128 3.1919 15.6898 3.18512 15.6667 3.17798L16.8734 1.01038C16.9428 0.885682 16.9517 0.736085 16.8974 0.604249C16.8432 0.47223 16.7318 0.372071 16.5947 0.332337C15.7295 0.0807496 14.8303 -0.046875 13.9219 -0.046875C13.0137 -0.046875 12.1143 0.0807497 11.2491 0.332154C11.112 0.372071 11.0006 0.472047 10.9462 0.604066C10.892 0.736085 10.9008 0.885682 10.9704 1.01038L12.1771 3.17798C12.1536 3.18531 12.1302 3.19226 12.1068 3.19996C11.3709 3.44294 10.9689 4.23926 11.2108 4.97571C11.2713 5.159 11.3668 5.32252 11.4879 5.46131C9.34242 6.69929 7.82814 9.43672 7.82814 11.9531C7.82814 12.0218 7.82978 12.0896 7.83198 12.1568C6.99244 12.3858 6.21186 12.8031 5.55543 13.3779L4.13086 14.6243L3.9408 14.4342C3.7577 14.2511 3.46106 14.2511 3.27796 14.4342L0.184204 17.528C0.00109857 17.7111 0.00109857 18.0077 0.184204 18.1908ZM12.0859 1.08673C12.6865 0.956361 13.3017 0.890626 13.9219 0.890626C14.5421 0.890626 15.1573 0.956361 15.7581 1.08673L14.7135 2.96302C14.1868 2.88959 13.6566 2.88959 13.1305 2.96302L12.0859 1.08673ZM12.3994 4.09058C13.3612 3.77582 14.4099 3.75202 15.4431 4.09022C15.689 4.17133 15.8233 4.4372 15.7425 4.68256C15.6817 4.86732 15.5169 4.99274 15.3259 5.00391C14.4016 4.71003 13.4416 4.70948 12.5177 5.003C12.5177 5.003 12.5177 5.003 12.5175 5.003C12.3248 4.99091 12.1613 4.86494 12.1013 4.68275C12.0205 4.43702 12.1547 4.17115 12.3994 4.09058ZM12.6586 5.94453C13.4715 5.65174 14.3136 5.64478 15.1284 5.92475C17.3062 6.67365 19.0781 9.37794 19.0781 11.9531C19.0781 12.1714 19.0644 12.3794 19.0373 12.5739L16.7842 14.0521C16.4354 13.62 15.9068 13.3594 15.3281 13.3594H14.3906V12.8101C14.9363 12.6165 15.3281 12.0954 15.3281 11.4844C15.3281 10.7089 14.6973 10.0781 13.9219 10.0781C13.6635 10.0781 13.4531 9.86793 13.4531 9.60939C13.4531 9.35084 13.6635 9.14064 13.9219 9.14064C14.088 9.14064 14.2632 9.22541 14.4289 9.38563C14.6149 9.56563 14.9118 9.56068 15.0918 9.37483C15.2717 9.18879 15.2668 8.89198 15.0808 8.71199C14.8429 8.48164 14.6049 8.35145 14.3906 8.28041V7.73439C14.3906 7.47547 14.1808 7.26563 13.9219 7.26563C13.663 7.26563 13.4531 7.47547 13.4531 7.73439V8.2837C12.9077 8.47724 12.5156 8.99836 12.5156 9.60939C12.5156 10.3848 13.1464 11.0156 13.9219 11.0156C14.1804 11.0156 14.3906 11.2258 14.3906 11.4844C14.3906 11.7429 14.1804 11.9531 13.9219 11.9531C13.7216 11.9531 13.5055 11.8272 13.3132 11.5985C13.1466 11.4003 12.8509 11.3747 12.6528 11.5413C12.4547 11.708 12.429 12.0037 12.5957 12.2018C12.8461 12.4999 13.1409 12.7075 13.4531 12.8123V13.3594H13.2971C13.0668 13.3594 12.9633 13.2092 12.8011 13.1043C11.8107 12.362 10.5839 11.9531 9.34645 11.9531C9.1529 11.9531 8.959 11.9632 8.766 11.9828C8.766 11.9729 8.76564 11.9632 8.76564 11.9531C8.76564 9.41401 10.5121 6.7187 12.6586 5.94453ZM6.17286 14.0832C7.0536 13.312 8.18537 12.8906 9.34645 12.8906C10.3825 12.8906 11.4095 13.2329 12.2382 13.8541C12.3578 13.9241 12.6907 14.2969 13.297 14.2969H15.3281C15.8617 14.2969 16.2656 14.7307 16.2656 15.2344C16.2656 15.7513 15.8451 16.1719 15.3281 16.1719H12.0469C11.788 16.1719 11.5781 16.3817 11.5781 16.6406C11.5781 16.8996 11.788 17.1094 12.0469 17.1094H15.3281C16.362 17.1094 17.2031 16.2682 17.2031 15.2344C17.2031 15.1269 17.1936 15.0209 17.1757 14.9165L21.7788 11.8964C21.9978 11.7611 22.2635 11.7294 22.5081 11.8092C22.7542 11.8898 22.9507 12.0738 23.0468 12.3144C23.1821 12.6521 23.0971 13.0302 22.8291 13.279L17.1425 18.6085C16.8814 18.8509 16.5416 18.9844 16.1854 18.9844H8.49098L4.79536 15.2886L6.17286 14.0832ZM3.60938 15.4285L8.57154 20.3907L6.14063 22.8216L1.17847 17.8594L3.60938 15.4285Z" fill="black"/>
</svg>
