<svg width="24" height="24" viewBox="0 0 24 24" fill="none" xmlns="http://www.w3.org/2000/svg">
<path d="M7.5 10.5H3.63C3.264 10.5 2.91299 10.3546 2.65419 10.0958C2.39539 9.83701 2.25 9.486 2.25 9.12V6.63C2.25 6.264 2.39539 5.91299 2.65419 5.65419C2.91299 5.39539 3.264 5.25 3.63 5.25H20.37C20.736 5.25 21.087 5.39539 21.3458 5.65419C21.6046 5.91299 21.75 6.264 21.75 6.63V9.12C21.75 9.486 21.6046 9.83701 21.3458 10.0958C21.087 10.3546 20.736 10.5 20.37 10.5H17.25" stroke="black" stroke-width="1.5" stroke-linecap="round" stroke-linejoin="round"/>
<path d="M7.5 8.25H16.5V20.25H7.5V8.25Z" stroke="black" stroke-width="1.5" stroke-linecap="round" stroke-linejoin="round"/>
<path d="M6 8.25H18" stroke="black" stroke-width="1.5" stroke-linecap="round" stroke-linejoin="round"/>
<path d="M12 15C12.8284 15 13.5 14.3284 13.5 13.5C13.5 12.6716 12.8284 12 12 12C11.1716 12 10.5 12.6716 10.5 13.5C10.5 14.3284 11.1716 15 12 15Z" stroke="black" stroke-width="1.5" stroke-linecap="round" stroke-linejoin="round"/>
<path d="M7.5 17.25C8.29565 17.25 9.05871 17.5661 9.62132 18.1287C10.1839 18.6913 10.5 19.4544 10.5 20.25" stroke="black" stroke-width="1.5" stroke-linecap="round" stroke-linejoin="round"/>
<path d="M16.5 17.25C15.7044 17.25 14.9413 17.5661 14.3787 18.1287C13.8161 18.6913 13.5 19.4544 13.5 20.25" stroke="black" stroke-width="1.5" stroke-linecap="round" stroke-linejoin="round"/>
</svg>
